<svg xmlns="http://www.w3.org/2000/svg" width="55" height="60" viewBox="0 0 55 60"><defs><clipPath id="t"><rect width="55" height="60"/></clipPath></defs><g clip-path="url(#t)"><rect width="55" height="60" fill="#4a0909"/><circle cx="-82.5" cy="-30" r="50" fill="#4a0909"/><circle cx="-82.5" cy="-30" r="50" fill="none" stroke="#5c1a1a" stroke-width="4"/><circle cx="-82.5" cy="-30" r="31" fill="none" stroke="#5c1a1a" stroke-width="4"/><circle cx="-82.5" cy="-30" r="14" fill="none" stroke="#5c1a1a" stroke-width="4"/><circle cx="-27.5" cy="-30" r="50" fill="#4a0909"/><circle cx="-27.5" cy="-30" r="50" fill="none" stroke="#5c1a1a" stroke-width="4"/><circle cx="-27.5" cy="-30" r="31" fill="none" stroke="#5c1a1a" stroke-width="4"/><circle cx="-27.5" cy="-30" r="14" fill="none" stroke="#5c1a1a" stroke-width="4"/><circle cx="27.5" cy="-30" r="50" fill="#4a0909"/><circle cx="27.5" cy="-30" r="50" fill="none" stroke="#5c1a1a" stroke-width="4"/><circle cx="27.5" cy="-30" r="31" fill="none" stroke="#5c1a1a" stroke-width="4"/><circle cx="27.5" cy="-30" r="14" fill="none" stroke="#5c1a1a" stroke-width="4"/><circle cx="82.5" cy="-30" r="50" fill="#4a0909"/><circle cx="82.5" cy="-30" r="50" fill="none" stroke="#5c1a1a" stroke-width="4"/><circle cx="82.5" cy="-30" r="31" fill="none" stroke="#5c1a1a" stroke-width="4"/><circle cx="82.5" cy="-30" r="14" fill="none" stroke="#5c1a1a" stroke-width="4"/><circle cx="-110" cy="0" r="50" fill="#4a0909"/><circle cx="-110" cy="0" r="50" fill="none" stroke="#5c1a1a" stroke-width="4"/><circle cx="-110" cy="0" r="31" fill="none" stroke="#5c1a1a" stroke-width="4"/><circle cx="-110" cy="0" r="14" fill="none" stroke="#5c1a1a" stroke-width="4"/><circle cx="-55" cy="0" r="50" fill="#4a0909"/><circle cx="-55" cy="0" r="50" fill="none" stroke="#5c1a1a" stroke-width="4"/><circle cx="-55" cy="0" r="31" fill="none" stroke="#5c1a1a" stroke-width="4"/><circle cx="-55" cy="0" r="14" fill="none" stroke="#5c1a1a" stroke-width="4"/><circle cx="0" cy="0" r="50" fill="#4a0909"/><circle cx="0" cy="0" r="50" fill="none" stroke="#5c1a1a" stroke-width="4"/><circle cx="0" cy="0" r="31" fill="none" stroke="#5c1a1a" stroke-width="4"/><circle cx="0" cy="0" r="14" fill="none" stroke="#5c1a1a" stroke-width="4"/><circle cx="55" cy="0" r="50" fill="#4a0909"/><circle cx="55" cy="0" r="50" fill="none" stroke="#5c1a1a" stroke-width="4"/><circle cx="55" cy="0" r="31" fill="none" stroke="#5c1a1a" stroke-width="4"/><circle cx="55" cy="0" r="14" fill="none" stroke="#5c1a1a" stroke-width="4"/><circle cx="-82.5" cy="30" r="50" fill="#4a0909"/><circle cx="-82.5" cy="30" r="50" fill="none" stroke="#5c1a1a" stroke-width="4"/><circle cx="-82.5" cy="30" r="31" fill="none" stroke="#5c1a1a" stroke-width="4"/><circle cx="-82.5" cy="30" r="14" fill="none" stroke="#5c1a1a" stroke-width="4"/><circle cx="-27.5" cy="30" r="50" fill="#4a0909"/><circle cx="-27.5" cy="30" r="50" fill="none" stroke="#5c1a1a" stroke-width="4"/><circle cx="-27.5" cy="30" r="31" fill="none" stroke="#5c1a1a" stroke-width="4"/><circle cx="-27.5" cy="30" r="14" fill="none" stroke="#5c1a1a" stroke-width="4"/><circle cx="27.5" cy="30" r="50" fill="#4a0909"/><circle cx="27.5" cy="30" r="50" fill="none" stroke="#5c1a1a" stroke-width="4"/><circle cx="27.5" cy="30" r="31" fill="none" stroke="#5c1a1a" stroke-width="4"/><circle cx="27.5" cy="30" r="14" fill="none" stroke="#5c1a1a" stroke-width="4"/><circle cx="82.5" cy="30" r="50" fill="#4a0909"/><circle cx="82.5" cy="30" r="50" fill="none" stroke="#5c1a1a" stroke-width="4"/><circle cx="82.5" cy="30" r="31" fill="none" stroke="#5c1a1a" stroke-width="4"/><circle cx="82.5" cy="30" r="14" fill="none" stroke="#5c1a1a" stroke-width="4"/><circle cx="-110" cy="60" r="50" fill="#4a0909"/><circle cx="-110" cy="60" r="50" fill="none" stroke="#5c1a1a" stroke-width="4"/><circle cx="-110" cy="60" r="31" fill="none" stroke="#5c1a1a" stroke-width="4"/><circle cx="-110" cy="60" r="14" fill="none" stroke="#5c1a1a" stroke-width="4"/><circle cx="-55" cy="60" r="50" fill="#4a0909"/><circle cx="-55" cy="60" r="50" fill="none" stroke="#5c1a1a" stroke-width="4"/><circle cx="-55" cy="60" r="31" fill="none" stroke="#5c1a1a" stroke-width="4"/><circle cx="-55" cy="60" r="14" fill="none" stroke="#5c1a1a" stroke-width="4"/><circle cx="0" cy="60" r="50" fill="#4a0909"/><circle cx="0" cy="60" r="50" fill="none" stroke="#5c1a1a" stroke-width="4"/><circle cx="0" cy="60" r="31" fill="none" stroke="#5c1a1a" stroke-width="4"/><circle cx="0" cy="60" r="14" fill="none" stroke="#5c1a1a" stroke-width="4"/><circle cx="55" cy="60" r="50" fill="#4a0909"/><circle cx="55" cy="60" r="50" fill="none" stroke="#5c1a1a" stroke-width="4"/><circle cx="55" cy="60" r="31" fill="none" stroke="#5c1a1a" stroke-width="4"/><circle cx="55" cy="60" r="14" fill="none" stroke="#5c1a1a" stroke-width="4"/><circle cx="-82.5" cy="90" r="50" fill="#4a0909"/><circle cx="-82.5" cy="90" r="50" fill="none" stroke="#5c1a1a" stroke-width="4"/><circle cx="-82.5" cy="90" r="31" fill="none" stroke="#5c1a1a" stroke-width="4"/><circle cx="-82.5" cy="90" r="14" fill="none" stroke="#5c1a1a" stroke-width="4"/><circle cx="-27.5" cy="90" r="50" fill="#4a0909"/><circle cx="-27.5" cy="90" r="50" fill="none" stroke="#5c1a1a" stroke-width="4"/><circle cx="-27.5" cy="90" r="31" fill="none" stroke="#5c1a1a" stroke-width="4"/><circle cx="-27.5" cy="90" r="14" fill="none" stroke="#5c1a1a" stroke-width="4"/><circle cx="27.5" cy="90" r="50" fill="#4a0909"/><circle cx="27.5" cy="90" r="50" fill="none" stroke="#5c1a1a" stroke-width="4"/><circle cx="27.5" cy="90" r="31" fill="none" stroke="#5c1a1a" stroke-width="4"/><circle cx="27.5" cy="90" r="14" fill="none" stroke="#5c1a1a" stroke-width="4"/><circle cx="82.5" cy="90" r="50" fill="#4a0909"/><circle cx="82.5" cy="90" r="50" fill="none" stroke="#5c1a1a" stroke-width="4"/><circle cx="82.5" cy="90" r="31" fill="none" stroke="#5c1a1a" stroke-width="4"/><circle cx="82.5" cy="90" r="14" fill="none" stroke="#5c1a1a" stroke-width="4"/></g></svg>